PathFileType	4	(X/Y/Z)	C:\Users\dbl\Desktop\20210112(1)\20210112\bx_y_5_901.trc
DataRate	CameraRate	NumFrames	NumMarkers	Units	OrigDataRate	OrigDataStartFrame	OrigNumFrames
50.00	50.00	       8	43	mm	50.00	264	       527
Frame#	Time	Top.Head			R.Acromium			L.Acromium			Sternum			R.ASIS			L.ASIS			V.Sacral			R.Thigh.Upper			R.Thigh.Front			R.Thigh.Rear			R.Knee.Lat			R.Knee.Med			R.Shank.Upper			R.Shank.Front			R.Shank.Rear			R.Ankle.Lat			R.Midfoot.Lat			R.Toe.Lat			R.Toe.Tip			R.Toe.Med			R.Ankle.Med			R.Midfoot.Sup			R.Heel			L.Thigh.Upper			L.Thigh.Front			L.Thigh.Rear			L.Knee.Lat			L.Knee.Med			L.Shank.Upper			L.Shank.Front			L.Shank.Rear			L.Ankle.Lat			L.Midfoot.Lat			L.Toe.Lat			L.Toe.Tip			L.Toe.Med			L.Ankle.Med			L.Midfoot.Sup			L.Heel			origin1 front left			origin2 front right			origin 3 back right			origin 4 back leftt			
		X1	Y1	Z1	X2	Y2	Z2	X3	Y3	Z3	X4	Y4	Z4	X5	Y5	Z5	X6	Y6	Z6	X7	Y7	Z7	X8	Y8	Z8	X9	Y9	Z9	X10	Y10	Z10	X11	Y11	Z11	X12	Y12	Z12	X13	Y13	Z13	X14	Y14	Z14	X15	Y15	Z15	X16	Y16	Z16	X17	Y17	Z17	X18	Y18	Z18	X19	Y19	Z19	X20	Y20	Z20	X21	Y21	Z21	X22	Y22	Z22	X23	Y23	Z23	X24	Y24	Z24	X25	Y25	Z25	X26	Y26	Z26	X27	Y27	Z27	X28	Y28	Z28	X29	Y29	Z29	X30	Y30	Z30	X31	Y31	Z31	X32	Y32	Z32	X33	Y33	Z33	X34	Y34	Z34	X35	Y35	Z35	X36	Y36	Z36	X37	Y37	Z37	X38	Y38	Z38	X39	Y39	Z39	X40	Y40	Z40	X41	Y41	Z41	X42	Y42	Z42	X43	Y43	Z43	

264	5.260	-375.32059	109.65182	1741.80273	-541.02277	-77.70073	1484.55542	-550.14771	275.73853	1479.11011	-529.26703	90.35281	1348.81580	-690.52478	-21.76683	1039.97925	-680.44678	202.34985	1052.13281	-886.49524	90.12489	1063.90674	-750.81842	-77.15807	855.27588	-685.24200	-17.01695	803.96759	-770.94440	-62.60522	702.61847	-777.10999	-36.74439	611.77515	-759.35144	71.50984	570.77972	-784.16412	-33.58130	563.18475	-727.45044	9.54331	524.79077	-819.10504	-42.40038	479.00467	-772.24597	-9.84083	202.51625	-665.89032	-69.91481	160.21115	-624.09094	-79.45723	157.99554	-561.08521	-39.88388	162.40398	-603.66962	18.36479	167.57521	-723.18018	72.50259	220.07895	-675.46680	53.25716	162.08681	-796.22131	52.69258	172.86908	-734.39661	271.37366	873.63605	-680.15082	202.94391	823.05029	-774.64685	272.66434	743.89514	-790.97974	246.54393	632.98627	-750.11346	138.54356	571.22015	-786.13342	242.03923	571.56897	-727.60394	200.71922	536.46844	-818.11560	254.65038	496.22214	-774.25201	225.41403	202.99788	-666.26843	300.49283	158.89546	-628.56671	308.42844	161.04401	-561.68451	261.59744	165.02919	-595.29572	223.66074	173.12753	-716.29803	155.25365	219.33003	-676.16504	174.42276	158.97296	-798.56281	176.00325	182.17538	-528.20148	303.52631	146.21626	-518.01526	-73.05432	142.95045	-876.00378	-78.93297	141.26419	-882.64142	296.01208	144.62318	
265	5.280	-363.69370	110.48179	1730.99658	-534.78839	-77.43069	1477.78662	-544.81647	275.55096	1472.81946	-527.34918	90.40338	1342.67834	-694.59003	-21.66214	1039.62549	-685.69324	201.95840	1050.90723	-890.71417	89.73330	1064.23035	-754.96619	-77.35786	854.87250	-689.22766	-17.16245	803.72479	-774.04462	-63.07068	702.14911	-779.76862	-37.07501	611.35022	-761.87500	71.12350	570.45587	-786.68018	-33.87712	562.75629	-729.71399	9.28986	524.68671	-820.85632	-42.58870	478.41830	-772.26672	-10.18807	202.40704	-665.98010	-70.01103	160.15314	-624.04950	-79.57082	157.97720	-561.23767	-39.66193	162.48991	-603.80615	18.33805	167.66644	-723.44006	72.26608	220.06754	-675.53461	53.07437	162.25208	-796.44714	52.42213	172.71550	-739.51050	271.39902	873.23730	-684.43542	203.23717	822.86853	-779.06946	273.47617	743.16040	-794.23169	246.59395	632.49890	-752.72540	138.62932	570.93121	-788.81616	242.13878	571.26727	-730.03174	200.76323	536.36096	-820.25439	254.77287	495.53549	-774.27643	225.46255	202.82928	-666.32660	300.54599	158.80241	-628.56110	308.44608	161.02289	-561.80627	261.49261	165.06462	-595.35754	223.77484	173.25603	-716.55243	155.29608	219.51001	-676.14136	174.48143	159.29825	-798.63672	175.99860	182.20787	-528.24304	303.59479	146.25787	-518.02362	-73.08362	142.95622	-876.02454	-78.85854	141.25211	-882.66132	296.04260	144.62994	
266	5.300	-352.46182	111.09195	1719.83936	-528.61389	-77.13775	1470.57886	-539.53113	275.37033	1466.27063	-525.46680	90.49471	1336.61816	-698.54626	-21.51622	1039.31580	-691.06866	201.65692	1049.85730	-895.29047	89.04152	1064.57080	-758.89380	-77.51369	854.36969	-693.19696	-17.10683	803.28564	-777.13763	-63.35815	701.60797	-782.26465	-37.29478	610.82935	-764.29907	70.81513	570.08459	-789.06281	-34.05871	562.32465	-731.81500	9.12348	524.59637	-822.49365	-42.78764	477.83624	-772.28284	-10.48014	202.31624	-666.02008	-70.06238	160.12715	-623.96338	-79.74617	157.99268	-561.33264	-39.49549	162.55351	-603.90662	18.32802	167.73347	-723.67755	72.04181	220.11647	-675.56696	52.94410	162.41946	-796.62000	52.22655	172.60881	-744.63251	271.55026	872.99164	-689.02490	203.54958	822.65308	-783.55231	274.22076	742.54205	-797.53906	246.67293	631.98077	-755.40356	138.78000	570.62750	-791.47589	242.31116	570.99548	-732.48297	200.90166	536.26215	-822.41437	255.01794	494.86163	-774.28278	225.60921	202.63515	-666.34448	300.55811	158.70068	-628.53693	308.47455	160.98470	-561.96936	261.34305	165.11351	-595.45624	223.90619	173.41696	-716.84204	155.43358	219.77229	-676.13977	174.60167	159.82362	-798.70734	176.02660	182.29155	-528.20245	303.68158	146.33742	-518.02533	-73.09328	142.97270	-876.04047	-78.78517	141.24072	-882.67822	296.08420	144.63782	
267	5.320	-341.53253	111.50272	1708.32849	-522.47748	-76.76564	1462.99402	-534.34332	275.23087	1459.46802	-523.57593	90.59397	1330.66101	-702.40765	-21.38250	1038.91589	-696.42749	201.61165	1048.94006	-900.82465	87.76340	1064.98462	-762.65680	-77.56931	853.85107	-697.14673	-16.98106	802.74963	-780.29865	-63.50333	701.05286	-784.70227	-37.45130	610.31067	-766.74786	70.61364	569.65485	-791.39484	-34.16985	561.86420	-733.83716	9.03572	524.52625	-824.15405	-43.02556	477.27100	-772.34863	-10.65856	202.23874	-666.02283	-70.06480	160.10835	-623.87018	-79.93015	158.04410	-561.37677	-39.42577	162.60152	-603.97437	18.30918	167.76620	-723.93805	71.84421	220.21423	-675.61652	52.85406	162.56932	-796.75488	52.09789	172.55444	-749.55927	271.93359	872.93732	-693.77008	203.88281	822.44897	-788.04456	274.81866	742.06372	-800.84222	246.77014	631.42316	-758.07434	138.93933	570.32855	-794.09784	242.46779	570.68103	-734.87811	201.13756	536.21783	-824.57019	255.27820	494.26755	-774.35138	225.79942	202.40811	-666.31305	300.52194	158.62845	-628.53387	308.49954	160.94058	-562.14600	261.17819	165.18132	-595.61182	224.04367	173.55728	-717.18457	155.68474	220.06223	-676.18726	174.76126	160.41748	-798.79510	176.11964	182.32144	-528.10541	303.74445	146.40392	-518.00134	-73.09161	142.99757	-876.07629	-78.71638	141.20491	-882.68011	296.11429	144.65126	
268	5.340	-330.79553	111.75153	1696.42761	-516.42688	-76.29713	1455.14136	-529.27081	275.17441	1452.45972	-521.66089	90.68392	1324.80701	-706.18835	-21.23893	1038.30676	-701.56073	201.83798	1047.90466	-907.71008	85.74722	1065.54797	-766.39246	-77.47666	853.34827	-701.07166	-16.86077	802.20422	-783.56830	-63.62054	700.51215	-787.25262	-37.60356	609.86682	-769.32086	70.48950	569.18799	-793.75238	-34.26885	561.36475	-735.93793	8.99489	524.43500	-825.95563	-43.29401	476.70279	-772.49921	-10.73740	202.15034	-666.02307	-70.04683	160.08186	-623.82300	-80.07018	158.08974	-561.41357	-39.42247	162.64430	-604.04669	18.25972	167.77219	-724.30505	71.63592	220.35812	-675.76068	52.75300	162.69487	-796.91241	51.98252	172.50220	-754.28467	272.53162	872.88690	-698.49738	204.25099	822.22186	-792.51788	275.27118	741.61206	-804.09381	246.85051	630.84314	-760.64825	139.08910	570.02472	-796.71594	242.56787	570.29993	-737.19385	201.44749	536.22766	-826.72827	255.42213	493.73486	-774.56201	225.96118	202.16487	-666.27277	300.47754	158.59499	-628.58130	308.52301	160.90826	-562.30676	261.04404	165.25197	-595.81396	224.16284	173.63670	-717.57855	155.99844	220.29153	-676.25500	174.89496	160.93143	-798.92529	176.30617	182.18018	-528.03125	303.77002	146.41148	-517.95007	-73.09650	143.02675	-876.11761	-78.66327	141.12946	-882.66595	296.12714	144.67329	
269	5.360	-320.18820	111.88918	1684.11792	-510.56299	-75.77893	1447.13416	-524.31531	275.17523	1445.30103	-519.72241	90.76068	1319.04932	-709.98175	-21.02730	1037.46130	-706.34491	202.19344	1046.57227	-914.81738	83.61269	1066.14844	-770.20215	-77.29987	852.83008	-704.96161	-16.73284	801.71271	-786.91193	-63.88121	699.97955	-789.95642	-37.76154	609.47620	-771.97388	70.39441	568.74219	-796.06812	-34.41473	560.90399	-738.13800	8.97231	524.33246	-827.87714	-43.57101	476.11780	-772.72107	-10.77159	202.00044	-666.04517	-70.05400	160.05612	-623.83795	-80.16550	158.10233	-561.48120	-39.42224	162.66989	-604.15216	18.18207	167.76819	-724.79425	71.38651	220.54065	-676.02423	52.62156	162.80962	-797.10266	51.84038	172.41098	-758.91711	273.19189	872.62854	-703.12317	204.64246	821.91168	-796.95892	275.64029	741.11377	-807.29248	246.87549	630.25970	-763.06696	139.25676	569.68176	-799.36218	242.61220	569.85620	-739.47473	201.72861	536.22388	-828.90839	255.39925	493.20239	-774.91052	226.05862	201.94135	-666.25977	300.46173	158.58740	-628.66791	308.55206	160.89946	-562.42065	260.97266	165.31308	-596.01764	224.23647	173.65332	-717.96356	156.29126	220.40456	-676.32233	174.98364	161.28551	-799.09296	176.55089	181.87648	-528.03650	303.77011	146.36368	-517.90631	-73.11320	143.04869	-876.13403	-78.63257	141.03244	-882.65033	296.11945	144.68971	
270	5.380	-309.75256	111.97896	1671.44153	-504.92450	-75.25821	1439.01855	-519.47882	275.17300	1437.99731	-517.76636	90.82611	1313.38318	-713.90161	-20.73574	1036.47900	-710.81067	202.52292	1045.00928	-917.25250	84.11987	1066.12988	-774.05377	-77.19834	852.29596	-708.79779	-16.53269	801.32062	-790.21472	-64.37245	699.45642	-792.64630	-37.90872	609.10199	-774.52643	70.32565	568.38501	-798.18677	-34.63051	560.61395	-740.28467	8.96124	524.28766	-829.72723	-43.81127	475.52814	-772.95667	-10.81083	201.75406	-666.08893	-70.10149	160.03546	-623.86737	-80.24683	158.11900	-561.57758	-39.38909	162.65912	-604.27826	18.10004	167.76854	-725.30652	71.13981	220.73398	-676.33167	52.49331	162.93030	-797.26935	51.68212	172.29544	-763.51276	273.75110	872.14313	-707.63531	205.02516	821.52191	-801.33307	276.01111	740.58319	-810.42639	246.86984	629.67078	-765.35284	139.43694	569.32544	-802.01123	242.62927	569.37622	-741.74652	201.87750	536.13361	-831.07959	255.28134	492.63080	-775.31573	226.09204	201.75923	-666.27069	300.46964	158.58614	-628.74988	308.58414	160.89702	-562.46387	260.95673	165.37360	-596.17670	224.25856	173.64301	-718.27325	156.50841	220.41776	-676.41266	175.08527	161.45744	-799.27057	176.76410	181.54608	-528.10419	303.76450	146.30725	-517.91205	-73.14639	143.04114	-876.11749	-78.61866	140.92822	-882.64343	296.08429	144.67691	
271	5.400	-299.60327	112.08704	1658.48865	-499.45557	-74.74245	1430.75256	-514.72644	275.13449	1430.49243	-515.79742	90.88277	1307.80701	-717.92242	-20.37938	1035.49219	-715.10657	202.76013	1043.39148	-904.93011	93.16189	1064.07776	-777.83026	-77.27805	851.79272	-712.54529	-16.19891	801.05115	-793.34778	-64.95650	698.95038	-795.09686	-38.04816	608.76416	-776.82562	70.31838	568.11298	-800.07733	-34.84798	560.49994	-742.26019	8.98280	524.30835	-831.31458	-43.96726	474.95596	-773.15405	-10.89594	201.45599	-666.13416	-70.16459	160.01530	-623.84290	-80.32397	158.18550	-561.68567	-39.33506	162.61070	-604.37811	18.04411	167.77756	-725.71844	70.97929	220.89713	-676.57281	52.41647	163.04713	-797.36542	51.54938	172.19563	-768.05035	274.14877	871.55402	-712.01904	205.39017	821.10815	-805.56207	276.43939	740.01819	-813.45325	246.89549	629.06018	-767.58765	139.59247	569.02197	-804.59302	242.66815	568.91168	-743.96802	201.91428	535.94806	-833.15314	255.19064	492.02533	-775.69165	226.08153	201.60985	-666.28247	300.47443	158.57140	-628.78857	308.61377	160.88135	-562.44733	260.95767	165.44452	-596.28296	224.25253	173.64729	-718.49799	156.64317	220.38594	-676.53143	175.24033	161.48096	-799.44757	176.89362	181.31241	-528.16693	303.77310	146.28842	-517.97400	-73.20631	142.98996	-876.08661	-78.60298	140.81429	-882.64081	296.03040	144.63197	
